# xmcd CD database generated by RipIT
#
# Track frame offsets:
# 150
# 24070
# 40465
# 57505
# 74106
# 97572
# 123879
# 143799
# 166163
# 181183
# 197104
# 226180
#
# Disc length: 3330 seconds
#
# Revision: 0
# Processed by: cddbd v1.5.2PL0 Copyright (c) Steve Scherf et al.
# Submitted via: RipIT 4.0.0-beta20140508 www.suwald.com/ripit/ripit.html on 2015-01-14 at 16:13
#
DISCID=980d000c
DTITLE=Robert Carl Blank - Rooms For Giants
DYEAR=2015
DGENRE=Blues
TTITLE0=Every Mother's Sone
TTITLE1=60 Foot Silver Screen
TTITLE2=Staring at the Sun
TTITLE3=Everywhere the Sun Shines
TTITLE4=Giants
TTITLE5=Right Here
TTITLE6=Can You Hear My Heart Yearning?
TTITLE7=Spiderhead
TTITLE8=Lately
TTITLE9=Parachutes
TTITLE10=I Don't Wanna Lose My Head
TTITLE11=Seville
EXTD=
EXTT0=
EXTT1=
EXTT2=
EXTT3=
EXTT4=
EXTT5=
EXTT6=
EXTT7=
EXTT8=
EXTT9=
EXTT10=
EXTT11=
PLAYORDER=
